# Blender v2.80 (sub 75) OBJ File: 'dadoLinux.blend'
# www.blender.org
mtllib dadoLinux.mtl
o Cube
v 1.000000 1.000000 -1.000000
v 1.000000 -1.000000 -1.000000
v 1.000000 1.000000 1.000000
v 1.000000 -1.000000 1.000000
v -1.000000 1.000000 -1.000000
v -1.000000 -1.000000 -1.000000
v -1.000000 1.000000 1.000000
v -1.000000 -1.000000 1.000000
vt 0.666176 0.000000
vt 0.331863 0.247104
vt 0.337745 -0.002896
vt 0.664216 0.250000
vt 0.334537 0.494253
vt 0.335784 0.245655
vt 0.668576 0.494253
vt 0.334537 0.744253
vt 0.665463 0.743103
vt 0.334537 0.997701
vt 0.331424 0.490804
vt 0.000498 0.738505
vt 0.000498 0.490804
vt 1.001058 0.493103
vt 0.665463 0.493103
vt 0.662255 0.251448
vt 0.667019 0.741954
vt 0.663907 0.997701
vt 0.329868 0.738505
vt 0.999502 0.743103
vn 0.0000 1.0000 0.0000
vn 0.0000 0.0000 1.0000
vn -1.0000 0.0000 0.0000
vn 0.0000 -1.0000 0.0000
vn 1.0000 0.0000 0.0000
vn 0.0000 0.0000 -1.0000
usemtl Material
s off
f 5/1/1 3/2/1 1/3/1
f 3/4/2 8/5/2 4/6/2
f 7/7/3 6/8/3 8/5/3
f 2/9/4 8/10/4 6/8/4
f 1/11/5 4/12/5 2/13/5
f 5/14/6 2/9/6 6/15/6
f 5/1/1 7/16/1 3/2/1
f 3/4/2 7/7/2 8/5/2
f 7/7/3 5/17/3 6/8/3
f 2/9/4 4/18/4 8/10/4
f 1/11/5 3/19/5 4/12/5
f 5/14/6 1/20/6 2/9/6
